#!OML:ASF F:\VICON\USERDATA\INSTALL\Justin_Nancy\Justin_Nancy.ASF
:FULLY-SPECIFIED
:DEGREES
223
root 5.18498 17.4126 -0.564654 5.7689 -48.3193 -2.70581
lowerback 5.68771 1.26339 3.32132
upperback -0.378166 1.98669 2.73903
thorax -3.56708 0.940141 0.794343
lowerneck -13.8458 -4.17342 -11.1943
upperneck 22.7036 -4.67515 5.64482
head 9.90233 -2.55941 3.25129
rclavicle -6.65929e-015 -3.18055e-015
rhumerus -28.6293 -7.55939 -82.1376
rradius 38.4125
rwrist -0.329815
rhand -13.7954 12.6378
rfingers 7.12502
rthumb 12.3264 -16.9788
lclavicle -6.65929e-015 -3.18055e-015
lhumerus -32.2296 17.3769 81.035
lradius 24.8721
lwrist -10.7076
lhand -14.0892 26.5614
lfingers 7.12502
lthumb 12.0431 56.1948
rfemur 9.84111 6.00784 31.583
rtibia 7.10963
rfoot -12.7015 -1.0566
rtoes 7.11146
lfemur -31.8252 -3.42512 -14.3388
ltibia 22.4294
lfoot -11.4872 9.19018
ltoes -18.04
224
root 5.11354 17.3991 -0.46361 5.9311 -48.4505 -2.84751
lowerback 5.77439 1.30336 3.33911
upperback -0.410177 2.04822 2.77702
thorax -3.6494 0.969289 0.816076
lowerneck -14.0705 -4.23412 -11.0514
upperneck 22.9093 -4.75113 5.53907
head 10.0193 -2.59425 3.17933
rclavicle -1.99779e-014 -8.74653e-015
rhumerus -28.6438 -7.76524 -81.971
rradius 38.0314
rwrist -0.0430627
rhand -14.011 12.4791
rfingers 7.12502
rthumb 12.1185 -17.1499
lclavicle -1.99779e-014 -8.74653e-015
lhumerus -32.1099 17.1246 81.1783
lradius 25.0282
lwrist -10.3251
lhand -13.8427 26.819
lfingers 7.12502
lthumb 12.2808 56.4384
rfemur 10.5318 6.0506 31.5763
rtibia 6.58039
rfoot -12.5412 -0.797079
rtoes 7.33035
lfemur -31.9736 -3.58701 -14.3248
ltibia 21.8202
lfoot -11.9032 8.77764
ltoes -18.1774
225
root 5.03712 17.3917 -0.35251 6.00716 -48.6426 -3.05304
lowerback 5.78204 1.27954 3.51297
upperback -0.295396 2.02177 2.74384
thorax -3.52778 0.954397 0.68801
lowerneck -14.3513 -4.17516 -10.7485
upperneck 22.9691 -4.70006 5.49486
head 10.0786 -2.54548 3.11769
rclavicle -3.01159e-014 -1.90833e-014
rhumerus -28.4806 -8.04767 -82.0382
rradius 37.5493
rwrist 0.383621
rhand -13.8701 12.7477
rfingers 7.12502
rthumb 12.2544 -16.8732
lclavicle -3.01159e-014 -1.90833e-014
lhumerus -32.0334 17.0825 81.1246
lradius 25.3023
lwrist -10.2532
lhand -14.6496 26.3918
lfingers 7.12502
lthumb 11.5027 56.0562
rfemur 11.1314 6.13909 31.5581
rtibia 6.63647
rfoot -12.7109 -0.444666
rtoes 9.09329
lfemur -31.7862 -3.84779 -14.2449
ltibia 21.2258
lfoot -12.3988 8.18669
ltoes -17.5157
226
root 4.96057 17.3851 -0.246325 5.98246 -48.8262 -3.06151
lowerback 5.77157 1.21863 3.4263
upperback -0.126487 1.9253 2.71549
thorax -3.34972 0.911022 0.71719
lowerneck -14.9535 -4.19541 -10.6066
upperneck 23.0801 -4.71403 5.56801
head 10.2317 -2.5221 3.11323
rclavicle 1.98884e-013 -7.15625e-015
rhumerus -28.0923 -8.16836 -82.2419
rradius 37.0837
rwrist 0.667216
rhand -13.7968 12.5999
rfingers 7.12502
rthumb 12.325 -17.0168
lclavicle 1.98884e-013 -7.15625e-015
lhumerus -31.8741 17.3565 81.0505
lradius 25.6951
lwrist -10.4285
lhand -14.5162 26.6105
lfingers 7.12502
lthumb 11.6313 56.2677
rfemur 11.495 6.21413 31.4167
rtibia 6.90722
rfoot -12.9218 -0.166692
rtoes 9.92928
lfemur -31.6147 -4.34582 -14.1976
ltibia 20.7648
lfoot -12.3326 7.80278
ltoes -16.88
227
root 4.88194 17.3817 -0.140926 5.51295 -48.9741 -2.40617
lowerback 5.75551 1.30343 2.90696
upperback -0.125242 2.00125 2.60042
thorax -3.35165 0.957954 0.882319
lowerneck -15.0153 -4.30529 -10.7345
upperneck 23.0867 -4.87707 5.7558
head 10.2695 -2.58577 3.1788
rclavicle -4.72114e-014 -1.59028e-015
rhumerus -28.1098 -8.61641 -82.0406
rradius 36.5782
rwrist 1.05868
rhand -13.8348 12.4716
rfingers 7.12502
rthumb 12.2884 -17.1474
lclavicle -4.72114e-014 -1.59028e-015
lhumerus -31.7119 16.88 81.2936
lradius 26.0507
lwrist -9.58183
lhand -13.9628 27.7084
lfingers 7.12502
lthumb 12.165 57.3346
rfemur 11.9059 6.2301 30.798
rtibia 7.05315
rfoot -13.0578 0.221847
rtoes 11.6644
lfemur -31.4457 -4.91321 -14.6901
ltibia 20.5446
lfoot -11.8179 7.54633
ltoes -17.9822
228
root 4.8079 17.3656 -0.0325288 5.67522 -48.7319 -2.46853
lowerback 5.71478 1.2952 3.03132
upperback -0.293279 2.00515 2.64399
thorax -3.50025 0.955711 0.856708
lowerneck -14.6938 -4.28286 -10.7666
upperneck 23.1133 -4.8821 5.76591
head 10.2191 -2.59691 3.19104
rclavicle 3.06128e-014 -1.19271e-014
rhumerus -28.5862 -8.81199 -81.6063
rradius 36.2974
rwrist 1.16017
rhand -13.881 12.592
rfingers 7.12502
rthumb 12.2439 -17.0296
lclavicle 3.06128e-014 -1.19271e-014
lhumerus -31.7265 16.4408 81.4988
lradius 26.1326
lwrist -9.06462
lhand -14.0082 27.6146
lfingers 7.12502
lthumb 12.1212 57.2435
rfemur 12.1714 5.91628 30.7555
rtibia 7.22455
rfoot -13.0583 0.441915
rtoes 11.4517
lfemur -31.4831 -4.49512 -15.1256
ltibia 20.5116
lfoot -11.1743 5.74606
ltoes -18.9197
229
root 4.73205 17.3512 0.0820189 5.78071 -48.4349 -2.71906
lowerback 5.75811 1.17984 3.24915
upperback -0.276955 1.86936 2.73379
thorax -3.50487 0.88434 0.838633
lowerneck -14.5864 -4.17358 -10.6795
upperneck 23.0266 -4.75752 5.76076
head 10.1522 -2.53301 3.19214
rclavicle 4.95968e-014 -3.33958e-014
rhumerus -28.7274 -8.93666 -81.3738
rradius 35.9294
rwrist 1.42481
rhand -13.8368 12.7439
rfingers 7.12502
rthumb 12.2865 -16.8751
lclavicle 4.95968e-014 -3.33958e-014
lhumerus -31.8087 16.7738 81.5005
lradius 26.1928
lwrist -9.66537
lhand -14.0363 26.9318
lfingers 7.12502
lthumb 12.0941 56.5623
rfemur 12.4447 5.522 30.8708
rtibia 7.67911
rfoot -13.0866 0.370154
rtoes 7.88316
lfemur -31.2998 -4.05584 -15.4505
ltibia 20.5936
lfoot -10.5806 3.76933
ltoes -14.8726
